<?xml version="1.0" encoding="UTF-8" standalone="no"?>
<svg
   xmlns:dc="http://purl.org/dc/elements/1.1/"
   xmlns:cc="http://creativecommons.org/ns#"
   xmlns:rdf="http://www.w3.org/1999/02/22-rdf-syntax-ns#"
   xmlns:svg="http://www.w3.org/2000/svg"
   xmlns="http://www.w3.org/2000/svg"
   xmlns:sodipodi="http://sodipodi.sourceforge.net/DTD/sodipodi-0.dtd"
   xmlns:inkscape="http://www.inkscape.org/namespaces/inkscape"
   class="ionicon"
   viewBox="0 0 40 39.999939"
   version="1.1"
   id="svg6"
   sodipodi:docname="logo-linkedin.svg"
   width="40"
   height="39.999939"
   inkscape:version="0.92.5 (2060ec1f9f, 2020-04-08)">
  <metadata
     id="metadata12">
    <rdf:RDF>
      <cc:Work
         rdf:about="">
        <dc:format>image/svg+xml</dc:format>
        <dc:type
           rdf:resource="http://purl.org/dc/dcmitype/StillImage" />
      </cc:Work>
    </rdf:RDF>
  </metadata>
  <defs
     id="defs10" />
  <sodipodi:namedview
     pagecolor="#ffffff"
     bordercolor="#666666"
     borderopacity="1"
     objecttolerance="10"
     gridtolerance="10"
     guidetolerance="10"
     inkscape:pageopacity="0"
     inkscape:pageshadow="2"
     inkscape:window-width="1920"
     inkscape:window-height="1015"
     id="namedview8"
     showgrid="false"
     inkscape:zoom="19.97503"
     inkscape:cx="20"
     inkscape:cy="19.999969"
     inkscape:window-x="0"
     inkscape:window-y="40"
     inkscape:window-maximized="1"
     inkscape:current-layer="svg6" />
  <title
     id="title2">Logo Linkedin</title>
  <path
     d="M 36.800837,0 H 3.417852 C 1.593747,0 0,1.3125 0,3.11517 v 33.45709 c 0,1.8125 1.593747,3.42768 3.417852,3.42768 h 33.373164 c 1.833925,0 3.208923,-1.62589 3.208923,-3.42768 V 3.11517 C 40.010659,1.3125 38.624941,0 36.800837,0 Z M 12.399088,33.34191 H 6.66874 V 15.52498 h 5.730348 z M 9.732128,12.81605 h -0.04107 c -1.833925,0 -3.021424,-1.36518 -3.021424,-3.0741 0,-1.74018 1.218749,-3.07321 3.093746,-3.07321 1.874997,0 3.022317,1.32321 3.063388,3.07321 -8.93e-4,1.70892 -1.188391,3.0741 -3.094638,3.0741 z m 23.609786,20.52586 h -5.730349 v -9.74195 c 0,-2.33392 -0.833927,-3.92856 -2.907138,-3.92856 -1.583926,0 -2.521425,1.07142 -2.938389,2.11517 -0.15625,0.375 -0.198214,0.88572 -0.198214,1.40714 v 10.1482 H 15.837476 V 15.52498 h 5.730348 v 2.47946 c 0.833928,-1.1875 2.136604,-2.89643 5.16785,-2.89643 3.761601,0 6.607133,2.47946 6.607133,7.82499 z"
     id="path4"
     inkscape:connector-curvature="0"
     style="stroke-width:1" />
</svg>
