<?xml version="1.0" encoding="UTF-8" standalone="no"?>
<svg
   xmlns:dc="http://purl.org/dc/elements/1.1/"
   xmlns:cc="http://creativecommons.org/ns#"
   xmlns:rdf="http://www.w3.org/1999/02/22-rdf-syntax-ns#"
   xmlns:svg="http://www.w3.org/2000/svg"
   xmlns="http://www.w3.org/2000/svg"
   xmlns:sodipodi="http://sodipodi.sourceforge.net/DTD/sodipodi-0.dtd"
   xmlns:inkscape="http://www.inkscape.org/namespaces/inkscape"
   id="artwork"
   viewBox="0 0 200 216.46515"
   version="1.1"
   sodipodi:docname="reshot-icon-finance-V6G7FT9L2D.svg"
   inkscape:version="0.92.5 (2060ec1f9f, 2020-04-08)"
   width="200"
   height="216.46515">
  <metadata
     id="metadata48">
    <rdf:RDF>
      <cc:Work
         rdf:about="">
        <dc:format>image/svg+xml</dc:format>
        <dc:type
           rdf:resource="http://purl.org/dc/dcmitype/StillImage" />
        <dc:title>Finance</dc:title>
      </cc:Work>
    </rdf:RDF>
  </metadata>
  <defs
     id="defs46" />
  <sodipodi:namedview
     pagecolor="#ffffff"
     bordercolor="#666666"
     borderopacity="1"
     objecttolerance="10"
     gridtolerance="10"
     guidetolerance="10"
     inkscape:pageopacity="0"
     inkscape:pageshadow="2"
     inkscape:window-width="1880"
     inkscape:window-height="1023"
     id="namedview44"
     showgrid="false"
     showborder="false"
     inkscape:zoom="0.4609375"
     inkscape:cx="-694.76051"
     inkscape:cy="-594.65037"
     inkscape:window-x="40"
     inkscape:window-y="33"
     inkscape:window-maximized="1"
     inkscape:current-layer="artwork" />
  <title
     id="title2">Finance</title>
  <g
     id="Finance"
     transform="matrix(0.47143485,0,0,0.47143485,-26.838786,-18.545122)">
    <path
       d="m 389.32,171.64 a 57.64,57.64 0 1 0 -20.42,-28 l -25.38,38 z"
       style="fill:#c6d0dc"
       id="path4"
       inkscape:connector-curvature="0" />
    <polygon
       points="380.92,223.48 356.99,498.5 133.86,474.88 156.94,204.38 "
       style="fill:#c6d0dc"
       id="polygon6" />
    <rect
       x="184.91"
       y="189.75"
       width="161"
       height="271.48001"
       transform="rotate(4.88,265.1795,325.1325)"
       style="fill:#ffffff"
       id="rect8" />
    <rect
       x="62.93"
       y="123.72"
       width="238.60001"
       height="325.85001"
       style="fill:#59aee4"
       id="rect10" />
    <rect
       x="62.93"
       y="155.89"
       width="238.60001"
       height="232.50999"
       style="fill:#ffffff"
       id="rect12" />
    <circle
       cx="182.23"
       cy="417.72"
       r="12.47"
       style="fill:#e83e38"
       id="circle14" />
    <rect
       x="283.17001"
       y="386.70001"
       width="18.35"
       height="62.869999"
       style="fill:#548fbf"
       id="rect16" />
    <rect
       x="283.17001"
       y="124.26"
       width="18.35"
       height="31.440001"
       style="fill:#548fbf"
       id="rect18" />
    <rect
       x="283.95999"
       y="155.89"
       width="18.35"
       height="230.8"
       style="fill:#c6d0dc"
       id="rect20" />
    <path
       d="m 381.86,148.89 a 57.65,57.65 0 1 0 -20.41,-28 l -25.39,38 z"
       style="fill:#f7c648"
       id="path22"
       inkscape:connector-curvature="0" />
    <polygon
       points="202.02,278.07 190.94,266.99 157.57,300.35 147.06,289.84 112.19,324.71 120.67,333.19 147.06,306.81 157.57,317.32 190.94,283.96 202.02,295.04 237.96,259.11 237.91,269.76 249.91,269.82 250.06,238.23 218.2,238.08 218.14,250.08 229.97,250.13 "
       style="fill:#ef835e"
       id="polygon24" />
    <polygon
       points="272.26,359.24 272.26,347.24 102.26,347.24 102.26,222.04 90.26,222.04 90.26,359.24 "
       id="polygon26" />
    <rect
       x="244.03"
       y="175.14999"
       width="35.23"
       height="12"
       id="rect28" />
    <rect
       x="244.03"
       y="192.58"
       width="35.23"
       height="12"
       id="rect30" />
    <path
       d="m 182.23,399.25 a 18.47,18.47 0 1 0 18.47,18.47 18.49,18.49 0 0 0 -18.47,-18.47 z m 0,24.94 a 6.47,6.47 0 1 1 6.47,-6.47 6.47,6.47 0 0 1 -6.47,6.47 z"
       id="path32"
       inkscape:connector-curvature="0" />
    <rect
       x="159.23"
       y="133.7"
       width="46"
       height="12"
       id="rect34" />
    <path
       d="m 476.41,82.59 a 63.64,63.64 0 0 0 -121.54,37.65 l -32.05,47.94 57.74,-12.53 a 63.64,63.64 0 0 0 95.85,-73.06 z m -43.89,69.2 a 51.72,51.72 0 0 1 -47.1,-7.39 l -2.18,-1.61 -33.94,7.36 18.77,-28.07 -0.94,-2.79 a 51.64,51.64 0 1 1 65.39,32.5 z"
       id="path36"
       inkscape:connector-curvature="0" />
    <path
       d="M 423.88,98.22 415.12,96 q -7.17,-1.77 -7.17,-6.19 a 5.65,5.65 0 0 1 2.28,-4.61 10.18,10.18 0 0 1 6.24,-1.8 h 0.59 q 7.29,0.09 9.31,5.84 l 8.84,-2.19 a 13.12,13.12 0 0 0 -6.66,-8.23 22.38,22.38 0 0 0 -6.41,-2.35 V 65.63 h -12 v 11.15 a 17.88,17.88 0 0 0 -6.61,3.34 13.54,13.54 0 0 0 -5.14,11.08 15,15 0 0 0 1.46,6.53 11.61,11.61 0 0 0 3.87,4.74 24.25,24.25 0 0 0 7.47,3 l 9.86,2.57 c 2.64,0.68 4.37,1.62 5.17,2.82 a 6.78,6.78 0 0 1 1.21,3.9 5.89,5.89 0 0 1 -2.66,4.88 12.07,12.07 0 0 1 -6.89,1.94 h -1.53 q -10.08,-0.28 -11.65,-7.65 l -9,1.93 a 15.76,15.76 0 0 0 7.65,10 24.63,24.63 0 0 0 6.82,2.52 v 11.67 h 12 v -11.43 a 21.07,21.07 0 0 0 9.43,-3.91 14.21,14.21 0 0 0 5.72,-11.95 14.83,14.83 0 0 0 -2.72,-8.63 q -2.74,-3.9 -10.72,-5.91 z"
       id="path38"
       inkscape:connector-curvature="0" />
    <path
       d="m 359.14,243.71 4.55,-51.88 -36.86,-3.24 -1.05,12 24.91,2.19 -3.51,39.92 a 26.73,26.73 0 0 0 -13.65,6.1 27,27 0 0 0 -9.53,18.34 l 12,1.05 a 15,15 0 0 1 5.31,-10.26 14.81,14.81 0 0 1 4.8,-2.72 l -2.59,29.47 a 27,27 0 0 0 -23.16,24.47 l 11.95,1.05 a 15.06,15.06 0 0 1 10.11,-13 l -2.58,29.47 a 26.65,26.65 0 0 0 -13.65,6.1 27,27 0 0 0 -9.52,18.38 l 11.95,1.05 a 15.07,15.07 0 0 1 5.28,-10.2 14.75,14.75 0 0 1 4.81,-2.72 l -2.59,29.47 a 26.65,26.65 0 0 0 -13.65,6.1 27,27 0 0 0 -9.47,18.33 l 11.95,1.05 a 15.11,15.11 0 0 1 5.26,-10.23 14.93,14.93 0 0 1 4.81,-2.71 l -7,80 -64.67,-5.67 h 44.2 V 117.72 H 56.93 v 337.85 h 69.16 l 212.81,18.68 4.55,-51.88 a 27.13,27.13 0 0 0 15,-46.37 27.16,27.16 0 0 0 5.67,-39.88 26.81,26.81 0 0 0 -2,-2.14 27.16,27.16 0 0 0 5.68,-39.87 25.31,25.31 0 0 0 -2,-2.14 27.16,27.16 0 0 0 5.68,-39.87 26.69,26.69 0 0 0 -12.34,-8.39 z m -290.21,-114 h 226.6 v 20 H 68.93 Z m 0,32 h 226.6 v 219 H 68.93 Z m 0,281.87 V 392.7 h 226.6 v 50.87 z m 285.75,-46.73 a 15.13,15.13 0 0 1 -10.12,13 L 347,382.3 a 15,15 0 0 1 7.71,14.54 z m 3.68,-42 a 15.09,15.09 0 0 1 -10.12,13 l 2.42,-27.52 a 15,15 0 0 1 7.7,14.54 z m 3.69,-42 a 15.11,15.11 0 0 1 -10.12,13 l 2.42,-27.53 a 14.93,14.93 0 0 1 4.26,3.52 15.08,15.08 0 0 1 3.44,10.98 z m 3.69,-42 a 15.11,15.11 0 0 1 -10.12,13 L 358,256.26 a 14.89,14.89 0 0 1 4.26,3.51 15.1,15.1 0 0 1 3.48,11.03 z"
       id="path40"
       inkscape:connector-curvature="0" />
  </g>
</svg>
