<?xml version="1.0" encoding="UTF-8" standalone="no"?>
<svg
   aria-hidden="true"
   focusable="false"
   data-prefix="fas"
   data-icon="at"
   class="svg-inline--fa fa-at fa-w-16"
   role="img"
   viewBox="0 0 20 20"
   version="1.1"
   id="svg4"
   sodipodi:docname="at-solid.svg"
   width="20"
   height="20"
   inkscape:version="1.1 (ce6663b3b7, 2021-05-25)"
   xmlns:inkscape="http://www.inkscape.org/namespaces/inkscape"
   xmlns:sodipodi="http://sodipodi.sourceforge.net/DTD/sodipodi-0.dtd"
   xmlns="http://www.w3.org/2000/svg"
   xmlns:svg="http://www.w3.org/2000/svg">
  <defs
     id="defs8" />
  <sodipodi:namedview
     id="namedview6"
     pagecolor="#ffffff"
     bordercolor="#999999"
     borderopacity="1"
     inkscape:pageshadow="0"
     inkscape:pageopacity="0"
     inkscape:pagecheckerboard="0"
     showgrid="false"
     inkscape:zoom="26"
     inkscape:cx="11.692308"
     inkscape:cy="9.3461538"
     inkscape:window-width="1862"
     inkscape:window-height="1022"
     inkscape:window-x="58"
     inkscape:window-y="34"
     inkscape:window-maximized="1"
     inkscape:current-layer="svg4" />
  <path
     fill="currentColor"
     d="M 7.5,5 C 3.355071,5 0,8.3544 0,12.5 0,16.64493 3.354405,20 7.5,20 c 1.45627,0 2.883327,-0.42762 4.095,-1.21642 0.363054,-0.23634 0.442289,-0.73452 0.167903,-1.06972 l -0.307772,-0.376 C 11.223146,17.05446 10.814637,16.98503 10.506351,17.18275 9.614516,17.75475 8.567964,18.06452 7.5,18.06452 4.431714,18.06452 1.9354839,15.56829 1.9354839,12.5 1.9354839,9.43171 4.431714,6.93548 7.5,6.93548 c 3.028397,0 5.564515,1.74251 5.564515,4.83871 0,1.17297 -0.637893,2.41156 -1.759173,2.53104 -0.524667,-0.0138 -0.51139,-0.38882 -0.407539,-0.90798 l 0.708659,-3.6626 C 11.693132,9.2868 11.350039,8.87097 10.893902,8.87097 H 9.533589 A 0.40881048,0.40881048 0 0 0 9.127378,9.23366 l -3.01e-4,0.003 C 8.68261,8.69525 7.903851,8.57809 7.313437,8.57809 c -2.255443,0 -4.168276,1.88208 -4.168276,4.58044 0,1.97489 1.1124495,3.20172 2.903226,3.20172 0.816048,0 1.734949,-0.47289 2.267872,-1.15927 0.287964,1.03137 1.228217,1.03135 2.138408,1.03135 C 13.748256,16.23216 15,14.06647 15,11.77419 15,7.6508 11.674083,5 7.5,5 Z m -0.655646,9.20655 c -0.672852,0 -1.0908265,-0.47247 -1.0908265,-1.23299 0,-1.36068 0.9308175,-2.19947 1.7730855,-2.19947 0.674152,0 1.076643,0.46092 1.076643,1.23297 0,1.36273 -1.024446,2.19949 -1.758902,2.19949 z"
     id="path2"
     style="stroke-width:1" />
</svg>
