<?xml version="1.0" encoding="UTF-8" standalone="no"?>
<svg
   xmlns:dc="http://purl.org/dc/elements/1.1/"
   xmlns:cc="http://creativecommons.org/ns#"
   xmlns:rdf="http://www.w3.org/1999/02/22-rdf-syntax-ns#"
   xmlns:svg="http://www.w3.org/2000/svg"
   xmlns="http://www.w3.org/2000/svg"
   xmlns:sodipodi="http://sodipodi.sourceforge.net/DTD/sodipodi-0.dtd"
   xmlns:inkscape="http://www.inkscape.org/namespaces/inkscape"
   aria-hidden="true"
   focusable="false"
   data-prefix="fas"
   data-icon="at"
   class="svg-inline--fa fa-at fa-w-16"
   role="img"
   viewBox="0 0 20 20"
   version="1.1"
   id="svg4"
   sodipodi:docname="at-solid.svg"
   width="20"
   height="20"
   inkscape:version="0.92.5 (2060ec1f9f, 2020-04-08)">
  <metadata
     id="metadata10">
    <rdf:RDF>
      <cc:Work
         rdf:about="">
        <dc:format>image/svg+xml</dc:format>
        <dc:type
           rdf:resource="http://purl.org/dc/dcmitype/StillImage" />
      </cc:Work>
    </rdf:RDF>
  </metadata>
  <defs
     id="defs8" />
  <sodipodi:namedview
     pagecolor="#ffffff"
     bordercolor="#666666"
     borderopacity="1"
     objecttolerance="10"
     gridtolerance="10"
     guidetolerance="10"
     inkscape:pageopacity="0"
     inkscape:pageshadow="2"
     inkscape:window-width="1920"
     inkscape:window-height="1015"
     id="namedview6"
     showgrid="false"
     inkscape:zoom="39.95"
     inkscape:cx="10"
     inkscape:cy="10"
     inkscape:window-x="0"
     inkscape:window-y="40"
     inkscape:window-maximized="1"
     inkscape:current-layer="svg4" />
  <path
     d="M 10,0 C 4.473427,0 0,4.47254 0,10 c 0,5.52657 4.47254,10 10,10 1.941693,0 3.844435,-0.57016 5.46,-1.62189 0.484072,-0.31513 0.589718,-0.97936 0.223871,-1.4263 L 15.273508,16.45048 C 14.964193,16.07262 14.419516,15.98004 14.008468,16.24367 12.819355,17.00633 11.423951,17.41936 10,17.41936 5.908952,17.41936 2.580645,14.09105 2.580645,10 2.580645,5.90895 5.908952,2.58065 10,2.58065 c 4.037863,0 7.419355,2.32334 7.419355,6.45161 0,1.56395 -0.850525,3.2154 -2.345565,3.37472 -0.699556,-0.0183 -0.681855,-0.51843 -0.543387,-1.21065 L 15.475282,6.31286 C 15.590847,5.71573 15.133387,5.16129 14.525201,5.16129 h -1.81375 a 0.54508064,0.54508064 0 0 0 -0.541612,0.48359 l -4.04e-4,0.004 C 11.576814,4.92706 10.538468,4.77086 9.75125,4.77086 c -3.007258,0 -5.557702,2.50943 -5.557702,6.10725 0,2.63319 1.483266,4.26895 3.870968,4.26895 1.088065,0 2.313266,-0.63052 3.023831,-1.54568 0.383951,1.37516 1.637621,1.37512 2.851209,1.37512 C 18.331008,14.97621 20,12.08863 20,9.03226 20,3.5344 15.565443,0 10,0 Z M 9.125806,12.2754 c -0.897137,0 -1.454435,-0.62996 -1.454435,-1.64399 0,-1.81423 1.241089,-2.93262 2.364113,-2.93262 0.898871,0 1.435524,0.61456 1.435524,1.64395 0,1.81698 -1.365927,2.93266 -2.345202,2.93266 z"
     id="path2"
     inkscape:connector-curvature="0"
     style="fill:currentColor;stroke-width:0.99999994" />
</svg>
